<svg width="1140" height="48" viewBox="0 0 1140 48" fill="none" xmlns="http://www.w3.org/2000/svg">
<g clip-path="url(#clip0)">
<ellipse cx="15.1941" cy="24" rx="15.1941" ry="16" fill="#316099"/>
<path d="M44.5824 24C44.5824 32.3336 38.1794 39 30.3882 39C22.5971 39 16.1941 32.3336 16.1941 24C16.1941 15.6664 22.5971 9 30.3882 9C38.1794 9 44.5824 15.6664 44.5824 24Z" fill="white" stroke="#316099" stroke-width="2"/>
</g>
<g clip-path="url(#clip1)">
<path d="M1139.1 16.875C1139.6 16.875 1140 16.4742 1140 15.9844V13.0156C1140 12.5258 1139.6 12.125 1139.1 12.125H1137.61V8.5625C1137.61 6.5957 1136 5 1134.03 5H1110.13C1108.15 5 1106.54 6.5957 1106.54 8.5625V39.4375C1106.54 41.4043 1108.15 43 1110.13 43H1134.03C1136 43 1137.61 41.4043 1137.61 39.4375V35.875H1139.1C1139.6 35.875 1140 35.4742 1140 34.9844V32.0156C1140 31.5258 1139.6 31.125 1139.1 31.125H1137.61V26.375H1139.1C1139.6 26.375 1140 25.9742 1140 25.4844V22.5156C1140 22.0258 1139.6 21.625 1139.1 21.625H1137.61V16.875H1139.1ZM1122.08 14.5C1124.71 14.5 1126.86 16.6301 1126.86 19.25C1126.86 21.8699 1124.71 24 1122.08 24C1119.44 24 1117.3 21.8699 1117.3 19.25C1117.3 16.6301 1119.44 14.5 1122.08 14.5ZM1130.44 32.075C1130.44 32.8617 1129.69 33.5 1128.77 33.5H1115.39C1114.46 33.5 1113.71 32.8617 1113.71 32.075V30.65C1113.71 28.2898 1115.96 26.375 1118.73 26.375H1119.1C1120.02 26.7535 1121.02 26.9688 1122.08 26.9688C1123.13 26.9688 1124.14 26.7535 1125.05 26.375H1125.42C1128.19 26.375 1130.44 28.2898 1130.44 30.65V32.075Z" fill="#316099"/>
</g>
<defs>
<clipPath id="clip0">
<rect width="45.5824" height="48" fill="white" transform="matrix(1 0 0 -1 0 48)"/>
</clipPath>
<clipPath id="clip1">
<rect width="33.4564" height="38" fill="white" transform="translate(1106.54 5)"/>
</clipPath>
</defs>
</svg>
